<?xml version="1.0" encoding="UTF-8" standalone="no"?>
<!-- Created with Inkscape (http://www.inkscape.org/) -->

<svg
   xmlns:dc="http://purl.org/dc/elements/1.1/"
   xmlns:cc="http://creativecommons.org/ns#"
   xmlns:rdf="http://www.w3.org/1999/02/22-rdf-syntax-ns#"
   xmlns:svg="http://www.w3.org/2000/svg"
   xmlns="http://www.w3.org/2000/svg"
   version="1.1"
   width="744.09448"
   height="1052.3622"
   id="svg2">
  <defs
     id="defs4" />
  <metadata
     id="metadata7">
    <rdf:RDF>
      <cc:Work
         rdf:about="">
        <dc:format>image/svg+xml</dc:format>
        <dc:type
           rdf:resource="http://purl.org/dc/dcmitype/StillImage" />
        <dc:title></dc:title>
      </cc:Work>
    </rdf:RDF>
  </metadata>
  <g
     id="layer1">
    <path
       d=""
       id="path3013"
       style="fill:#000000" />
    <path
       d="m 151.8547,985.3378 0,-34.79996 19.4,-0.0152 19.4,-0.0152 2.67136,-8.58456 c 8.61466,-27.68392 22.2409,-55.63288 36.16789,-74.18464 19.04736,-25.37248 49.75888,-44.28816 88.41904,-54.45864 5.80064,-1.52599 12.66048,-3.03855 15.24408,-3.36126 l 4.6976,-0.58714 0.20504,-60.59668 0.20504,-60.59668 -35.20504,0 -35.20504,0 0,-27.6 0,-27.6 35.2,0 35.2,0 0,-38.8 0,-38.8 -25.63816,0 -25.63824,0 -1.76176,-1.9224 c -0.96904,-1.05733 -17.72576,-29.85733 -37.23728,-64 l -35.47553,-62.0776 -34.3245,0 -34.3245,0 0,35.2 0,35.2 -27.6,0 -27.599997,0 0,-35.2 0,-35.2 -36,0 -36,0 0,-27.6 0,-27.6 36,0 36,0 0,-36.4 0,-36.4 27.599997,0 27.6,0 0,36 0,36 32.6,-0.0158 32.6,-0.0158 35.19997,-61.66225 c 19.36,-33.91425 35.9928,-62.52717 36.96184,-63.58428 l 1.76176,-1.92195 27.63824,0 27.63816,0 0,-33.2 0,-33.2 -35.2,0 -35.2,0 0,-27.6 0,-27.6 35.2,0 35.2,0 0,-35.999995 0,-36 28.4,0 28.4,0 0,36 0,35.999995 35.2,0 35.2,0 0,27.6 0,27.6 -35.2,0 -35.2,0 0,33.2 0,33.2 27.63824,0 27.63816,0 1.76184,1.92202 c 0.96896,1.05712 17.60176,29.67003 36.96176,63.58428 l 35.2,61.66226 32.6,0.0158 32.6,0.0157 0,-36 0,-36 27.6,0 27.6,0 0,36.4 0,36.4 36,0 36,0 0,27.6 0,27.6 -36,0 -36,0 0,35.2 0,35.2 -27.6,0 -27.6,0 0,-35.2 0,-35.2 -34.32448,0 -34.32448,0 -35.47552,62.07759 c -19.51152,34.14267 -36.26832,62.94267 -37.23728,64 l -1.76184,1.92241 -25.63816,0 -25.63824,0 0,38.8 0,38.8 35.2,0 35.2,0 0,27.6 0,27.6 -35.20504,0 -35.20496,0 0.20496,60.59668 0.20504,60.59667 4.6976,0.58674 c 2.58368,0.32271 9.44352,1.83528 15.24408,3.36126 38.66016,10.17048 69.37168,29.08616 88.41912,54.45865 13.92696,18.55176 27.5532,46.50072 36.16784,74.18464 l 2.67136,8.58456 19.4,0.0152 19.4,0.0152 0,34.79997 0,34.80001 -58.8,0 -58.8,0 0,-34.80002 0,-34.79996 10,0 c 9.06288,0 10.96888,-0.36448 9.51384,-1.81952 -0.26736,-0.26736 -1.54744,-3.65736 -2.84456,-7.53328 -5.29008,-15.80736 -13.74592,-30.6512 -22.48576,-39.4728 -10.53336,-10.63192 -27.45912,-19.19736 -47.1988,-23.88552 -10.35352,-2.45896 -15.01432,-2.93016 -15.8548,-1.60288 -0.388,0.61272 -0.71088,20.644 -0.71768,44.514 l -0.012,43.4004 -27.6,0 -27.6,0 -0.012,-43.4 c -0.008,-23.87 -0.32968,-43.90128 -0.7176,-44.514 -1.90512,-3.00848 -28.14712,3.91736 -42.87016,11.31432 -17.33448,8.70904 -27.23456,19.15056 -36.40048,38.39128 -2.15072,4.51464 -4.97168,11.3796 -6.2688,15.2556 -1.29712,3.87592 -2.57712,7.26592 -2.84456,7.53328 -1.45496,1.45504 0.45104,1.81952 9.51384,1.81952 l 10,0 0,34.79996 0,34.80002 -58.79996,0 -58.8,0 0,-34.80002 z M 410.56619,475.53784 c 10.39728,-17.17944 44.48848,-77.95148 44.48848,-79.30656 0,-1.3612 -30.2084,-55.29774 -40.4896,-72.29344 l -2.29872,-3.8 -45.61168,0 -45.6116,0 -2.2988,3.8 c -10.2812,16.9957 -40.4896,70.93224 -40.4896,72.29344 0,1.35508 34.09128,62.12712 44.48856,79.30656 l 2.29984,3.8 41.6116,0 41.61168,0 2.29984,-3.8 z"
       id="path3839"
       style="fill:#000000" />
  </g>
</svg>
